<svg width="52" height="51" viewBox="0 0 52 51" fill="none" xmlns="http://www.w3.org/2000/svg">
<path d="M26.0059 50.3175C39.8098 50.3175 51 39.1916 51 25.4671C51 11.7426 39.8098 0.616699 26.0059 0.616699C12.202 0.616699 1.01172 11.7426 1.01172 25.4671C1.01172 39.1916 12.202 50.3175 26.0059 50.3175Z" stroke="#B7B7B7"/>
<path d="M24.7062 32.8142L24.6858 26.5549H22.0078V23.8724H24.6858V22.084C24.6858 19.6705 26.1778 18.5073 28.3272 18.5073C29.3568 18.5073 30.2417 18.5841 30.4995 18.6184V21.1407L29.0088 21.1414C27.8399 21.1414 27.6135 21.6978 27.6135 22.5144V23.8724H30.9343L30.0416 26.5549H27.6135V32.8142H24.7062Z" fill="#1E2532"/>
</svg>
