<svg width="52" height="52" viewBox="0 0 52 52" fill="none" xmlns="http://www.w3.org/2000/svg">
<path d="M26.0059 51.0183C39.8098 51.0183 51 39.8924 51 26.1679C51 12.4434 39.8098 1.3175 26.0059 1.3175C12.202 1.3175 1.01172 12.4434 1.01172 26.1679C1.01172 39.8924 12.202 51.0183 26.0059 51.0183Z" stroke="#B7B7B7"/>
<g clip-path="url(#clip0_265_2440)">
<path d="M29.7552 18.7159H22.2569C20.1864 18.7159 18.5078 20.3848 18.5078 22.4435V29.8986C18.5078 31.9573 20.1864 33.6262 22.2569 33.6262H29.7552C31.8258 33.6262 33.5043 31.9573 33.5043 29.8986V22.4435C33.5043 20.3848 31.8258 18.7159 29.7552 18.7159Z" stroke="#1E2532" stroke-width="2" stroke-linecap="round" stroke-linejoin="round"/>
<path d="M29.0052 25.702C29.0978 26.3224 28.9912 26.9561 28.7006 27.5128C28.4101 28.0696 27.9503 28.5211 27.3868 28.8031C26.8233 29.0851 26.1847 29.1832 25.5619 29.0836C24.939 28.9839 24.3636 28.6915 23.9175 28.248C23.4715 27.8045 23.1774 27.2324 23.0772 26.6132C22.9769 25.9939 23.0757 25.359 23.3593 24.7987C23.6429 24.2384 24.097 23.7814 24.657 23.4925C25.2169 23.2036 25.8543 23.0976 26.4783 23.1896C27.1149 23.2835 27.7042 23.5784 28.1592 24.0308C28.6142 24.4832 28.9108 25.0691 29.0052 25.702Z" stroke="#1E2532" stroke-width="2" stroke-linecap="round" stroke-linejoin="round"/>
<ellipse cx="30.1289" cy="22.0686" rx="1.125" ry="1.11827" fill="white"/>
</g>
<defs>
<clipPath id="clip0_265_2440">
<rect width="17.9958" height="17.8923" fill="white" transform="translate(17.0078 17.2238)"/>
</clipPath>
</defs>
</svg>
