<svg width="1700" height="297" viewBox="0 0 1700 297" fill="none" xmlns="http://www.w3.org/2000/svg">
<path d="M1696.17 32.8029C1697.76 35.1522 1699.83 46.4154 1699.97 49.663C1701.08 75.6442 1672.31 117.449 1668.02 148.267C1662.35 189.312 1687.8 204.168 1661.73 248.875C1647.9 272.507 1612.02 295.379 1583.53 290.473C1579.73 289.782 1573.92 287.294 1570.67 285.221C1539 264.768 1553.38 239.616 1570.12 223.032C1574.13 219.094 1589.13 208.591 1590.79 206.241C1593 202.994 1592.59 198.848 1591.14 195.462C1590.38 193.803 1573.44 170.793 1572.12 169.895C1567.84 166.717 1558.85 165.887 1554.7 170.102C1549.79 175.147 1537.41 202.441 1534.92 210.042C1526.69 234.71 1528.98 258.134 1516.25 282.388C1503.53 306.642 1484.93 292.408 1465.85 292.269C1456.51 292.269 1447.11 297.452 1437.15 296.968C1427.2 296.484 1416.27 290.68 1415.24 279.417C1414.96 276.584 1416.41 263.87 1417.24 260.968C1421.04 247.908 1442.13 211.216 1450.08 198.226C1464.19 175.216 1487.49 144.121 1506.57 125.326C1527.59 104.597 1584.02 73.7785 1592.17 47.1754C1594.73 38.8145 1593.49 29.9698 1601.09 22.5762C1613.12 10.9676 1621.63 22.7144 1631.45 23.2672C1653.5 24.4419 1662.29 15.3899 1686.28 26.3767C1688.08 27.2058 1695.13 31.6282 1695.96 32.8029H1696.17ZM1620.94 85.0416C1615.54 95.061 1607.25 109.986 1603.51 119.868C1600.06 128.919 1599.64 137.004 1611.95 134.516C1624.26 132.029 1630.55 108.397 1632.83 98.3778C1634.9 89.1185 1642.51 71.291 1640.23 70.1854C1638.92 69.5635 1633.04 69.7708 1631.66 70.9455C1628.47 73.7094 1622.18 82.8305 1620.94 85.1798V85.0416Z" fill="black"/>
<path d="M1110.04 181.158C1105.89 176.459 1088.32 155.039 1083 155.177C1081.69 155.177 1080.72 155.799 1079.96 156.835C1074.15 170.517 1068.55 184.475 1064.47 198.778C1056.52 227.04 1048.77 286.879 1013.65 293.72C999.682 296.415 971.402 296.83 959.164 289.574C936.001 275.824 949.276 260.138 955.707 241.965C967.184 209.489 973.891 174.939 993.874 145.089C1017.04 110.47 1058.87 88.5656 1078.99 52.565C1083.97 43.6513 1084.45 34.1156 1088.12 25.7546C1090.4 20.5031 1099.04 14.7679 1105.2 15.3207C1111.35 15.8735 1121.1 23.0598 1128.57 24.2345C1143.57 26.653 1149.93 22.4379 1163 20.2268C1167.77 19.3976 1182.91 16.7718 1188.86 17.3937C1195.08 18.0156 1203.86 25.7547 1204.55 26.3766C1225.85 47.2444 1194.94 88.7728 1187.96 109.295C1171.71 156.973 1199.51 197.604 1174.34 249.29C1159.75 279.14 1129.81 297.797 1096.69 284.392C1061.22 270.088 1086.66 208.867 1111.07 208.383C1118.12 208.245 1125.94 213.911 1123.45 199.262C1121.86 189.934 1115.29 187.239 1109.97 181.089L1110.04 181.158ZM1139.49 68.7342C1138.73 68.8724 1138.11 69.4252 1137.83 70.1853C1135.62 76.8188 1133.06 83.5904 1129.67 89.6711C1125.04 98.1012 1112.46 109.917 1113.98 118.831C1114.88 124.013 1123.59 131.2 1128.22 136.175C1129.33 137.349 1131.19 137.073 1131.82 135.622C1133.89 130.854 1133.96 119.246 1135.07 115.652C1135.89 112.958 1139.56 105.564 1141.01 102.454C1145.3 93.2643 1151.73 85.0415 1156.29 75.9896C1156.5 75.5059 1156.64 74.9531 1156.5 74.4003C1154.7 67.0067 1145.71 67.6977 1139.42 68.7342H1139.49Z" fill="black"/>
<path d="M282.109 28.1719C315.506 59.8192 303.129 120.903 271.599 150.062C259.499 161.256 247.123 165.195 234.193 173.28C219.396 182.539 229.145 192.835 231.773 205.618C240.139 246.594 218.013 275.546 179.638 287.224C154.678 294.825 126.951 288.882 116.441 263.177C108.006 242.517 113.606 206.654 130.408 190.831C142.232 179.706 171.479 181.295 160.278 204.996C157.028 211.837 149.768 214.463 146.933 222.685C144.099 230.908 145.136 241.273 155.369 242.793C160.278 243.484 172.447 234.432 175.49 230.148C182.612 220.129 186.829 193.042 183.372 181.019C182.957 179.568 179.5 175.56 178.186 174.316C172.033 168.65 161.799 165.817 156.406 159.045C151.635 153.034 149.423 146.953 151.151 139.214C153.018 130.646 161.799 123.459 169.889 120.972C190.217 114.684 190.356 129.609 183.994 144.327C194.435 147.16 202.525 145.571 210.269 138.039C220.018 128.573 232.672 106.737 234.815 93.3322C236.682 81.7926 229.353 65.1398 218.359 60.4411C208.126 56.0879 193.398 53.3931 183.372 58.6446C153.295 74.33 103.719 176.458 93.1397 209.971C90.5814 218.056 87.4008 229.042 85.7413 237.265C83.1139 250.256 84.2893 264.421 80.6938 276.583C78.4812 283.976 74.6092 289.642 66.3811 290.886C58.153 292.13 25.9321 288.606 17.0125 286.395C9.75245 284.598 -0.204242 279.692 0.00318876 271.124C0.0723324 266.978 6.84842 246.525 8.92273 241.964C13.2788 232.29 21.1612 211.146 26.8309 200.366C43.4946 168.719 54.9724 146.884 72.1892 115.444C87.6773 87.1824 102.958 58.3682 118.861 30.314C123.355 22.3676 137.115 7.23498 145.551 4.74742C155.922 1.70707 171.479 2.53622 181.782 5.57657C186.622 6.95855 190.632 10.4826 195.403 11.1045C208.748 12.9702 224.305 6.40579 235.506 7.44227C251.686 8.89335 270.493 17.047 282.109 28.1028V28.1719Z" fill="black"/>
<path d="M434.294 96.9269C447.57 70.1166 463.196 18.5688 501.087 24.7877C502.332 24.995 516.23 28.7954 516.921 29.21C521.761 31.5594 524.319 39.4366 524.319 44.55C524.388 86.2857 470.871 162.295 451.995 201.819C448.4 209.351 442.038 224.76 445.772 232.637C448.054 237.336 453.585 241.966 458.08 236.921C468.451 225.313 465.824 199.953 485.322 197.397C494.104 196.222 514.916 197.811 518.995 206.932C528.537 228.008 499.013 265.874 481.796 276.86C460.016 290.749 425.306 302.773 405.116 280.523C402.488 277.621 399.792 268.154 396.334 267.947C393.776 267.809 380.431 278.035 376.283 280.108C345.514 295.448 302.022 291.095 279.413 264.561C271.254 254.956 271.254 241.482 270.7 235.332C268.073 202.925 297.252 163.538 311.288 134.586C323.25 109.987 332.515 84.0746 345.306 59.8209C351.875 47.314 362.731 23.3366 376.974 19.8816C382.298 18.5688 398.754 18.4997 404.009 19.6744C425.651 24.4422 411.961 58.2316 406.429 71.5677C389.766 111.714 363.837 151.93 348.971 193.389C344.822 204.929 339.982 232.292 360.795 224.622C383.474 216.33 396.058 175.7 405.807 155.039C414.658 136.244 433.672 97.9635 434.087 97.0652L434.294 96.9269Z" fill="black"/>
<path d="M750.488 143.154C744.335 148.06 733.756 153.657 725.873 156.006C704.093 162.432 665.096 155.177 654.379 132.927C648.156 120.075 650.23 110.332 655.554 97.6177C659.219 88.8421 670.697 74.8149 679.132 71.0836C698.078 62.7917 708.311 70.8764 703.54 91.1223C701.051 101.556 684.456 121.664 699.875 129.61C714.326 137.073 722.693 125.326 729.953 114.34C741.776 96.443 747.169 70.3927 735.069 50.2158C713.704 14.4226 674.5 43.3058 655.347 65.1411C628.934 95.1991 600.032 153.45 597.335 194.08C593.117 258.273 661.224 252.883 675.191 204.03L674.984 203.477C674.085 200.437 671.319 198.087 668.138 198.018C667.239 198.018 666.271 198.157 665.373 198.433C663.782 198.917 641.656 220.061 630.732 214.118C621.466 209.074 620.014 203.408 621.051 194.08C622.158 184.129 628.173 162.985 634.604 155.384C645.667 142.256 649.677 156.697 660.947 164.644C669.106 170.379 686.392 177.012 696.349 176.943C708.795 176.943 729.261 164.436 735.484 182.609C737.766 189.174 737.005 194.08 733.894 199.884C727.394 212.114 720.411 216.744 716.331 232.499C712.252 248.253 718.198 260.484 712.183 275.478C703.54 297.106 673.324 288.054 656.107 287.985C650.438 287.985 645.528 290.196 640.55 290.265C561.519 292.131 522.038 251.708 541.467 172.59C549.488 140.044 575.901 93.4026 596.713 67.7669C624.025 34.0466 649.47 10.6221 693.652 1.70833C777.04 -15.0827 809.537 96.3047 750.419 143.016L750.488 143.154Z" fill="black"/>
<path d="M997.677 76.335C963.312 115.1 935.724 158.563 918.231 207.623C911.178 227.523 908.343 249.29 901.014 268.292C897.695 276.86 891.541 289.712 880.962 290.956C866.096 292.684 844.524 290.127 828.966 290.265C813.409 290.403 797.299 293.167 780.358 289.16C772.061 287.225 763.695 282.112 763.072 273.06C761.759 252.814 785.06 202.371 792.044 180.191C798.197 160.567 800.825 140.528 806.218 121.249C807.324 117.242 808.845 100.381 809.329 96.9265C810.228 90.0166 811.542 79.9281 811.266 72.3964C810.92 62.6534 805.388 52.0813 805.527 43.6512C805.527 41.9238 807.117 33.701 809.606 30.3843C812.303 26.722 818.18 25.0636 818.871 24.7872C831.179 19.9503 848.396 26.1692 861.187 26.9293C870.383 27.4821 890.712 24.3035 897.557 29.0022C913.598 39.8508 894.238 90.5003 878.473 91.5368C871.904 91.9514 868.033 88.4964 863.538 85.8016C860.358 83.9359 856.209 85.6634 855.172 89.2565C853.236 95.6136 851.092 105.149 850.677 107.568C847.289 124.635 846.667 141.979 850.401 159.116C856.209 185.788 870.798 196.636 889.605 171.277C905.992 149.096 919.13 95.4063 929.709 66.6611C936.692 47.6589 942.016 15.8735 967.461 13.7314C980.875 12.6258 1014.89 11.6585 1026.03 17.601C1032.53 20.9868 1031.7 27.3439 1030.93 33.9774C1029.21 49.9392 1007.77 64.9337 997.608 76.4041L997.677 76.335Z" fill="black"/>
<path d="M1380.87 93.6101C1416.06 61.1336 1428.37 21.1944 1480.92 21.9545C1489.7 22.0927 1502.43 24.2348 1506.44 33.0794C1521.44 66.1087 1462.67 113.994 1439.44 129.334C1395.39 158.425 1355.5 157.941 1331.5 214.257C1324.1 231.67 1314.42 280.523 1303.43 290.888C1301.15 293.03 1297.55 294.895 1294.37 295.31C1281.3 297.037 1233.66 296.415 1222.46 292.477C1200.2 284.669 1211.4 263.593 1220.39 249.152C1236.84 222.756 1254.68 200.368 1269.2 171.554C1280.54 149.027 1288.01 120.697 1290.57 96.7886C1291.19 90.9843 1291.95 86.562 1289.88 80.2739C1285.94 68.3198 1279.85 83.7289 1275.84 88.1512C1270.45 94.0937 1265.95 94.0938 1264.36 94.4392C1237.88 99.8981 1239.06 63.4138 1249.43 47.1064C1269.2 16.081 1299.56 21.8163 1330.74 20.1579C1351.35 19.0523 1367.6 12.488 1386.96 25.2022C1395.81 31.0065 1397.74 45.0335 1391.52 53.74C1383.91 64.3812 1363.24 64.5194 1352.18 73.0185C1342.01 80.7576 1334.68 93.4719 1343.33 105.495C1354.94 121.664 1371.54 102.386 1380.87 93.7482V93.6101Z" fill="black"/>
</svg>
