<svg width="52" height="52" viewBox="0 0 52 52" fill="none" xmlns="http://www.w3.org/2000/svg">
<path d="M26.0059 50.7191C39.8098 50.7191 51 39.5932 51 25.8687C51 12.1442 39.8098 1.01828 26.0059 1.01828C12.202 1.01828 1.01172 12.1442 1.01172 25.8687C1.01172 39.5932 12.202 50.7191 26.0059 50.7191Z" stroke="#B7B7B7"/>
<path d="M33.2902 21.2463C32.7546 21.5145 32.219 21.6039 31.5942 21.6934C32.219 21.3357 32.6653 20.7992 32.8439 20.0838C32.3083 20.4415 31.6834 20.6203 30.9693 20.7992C30.4337 20.2627 29.6303 19.905 28.8269 19.905C27.3094 19.905 25.9705 21.2463 25.9705 22.8558C25.9705 23.124 25.9705 23.3029 26.0597 23.4817C23.6496 23.3923 21.418 22.2299 19.9897 20.4415C19.7219 20.8886 19.6327 21.3357 19.6327 21.9616C19.6327 22.9452 20.1683 23.8394 20.9716 24.3759C20.5253 24.3759 20.079 24.1971 19.6327 24.0182C19.6327 25.4489 20.6146 26.6114 21.9536 26.8796C21.6858 26.969 21.418 26.969 21.1502 26.969C20.9716 26.969 20.7931 26.969 20.6146 26.8796C20.9716 28.042 22.0428 28.9362 23.3818 28.9362C22.3999 29.741 21.1502 30.1881 19.7219 30.1881C19.4541 30.1881 19.2756 30.1881 19.0078 30.1881C20.3468 30.9928 21.8643 31.5293 23.4711 31.5293C28.8269 31.5293 31.7727 27.0584 31.7727 23.2135C31.7727 23.124 31.7727 22.9452 31.7727 22.8558C32.3975 22.4087 32.9331 21.8722 33.2902 21.2463Z" fill="#1E2532"/>
</svg>
